<svg width="17" height="20" viewBox="0 0 17 20" fill="none" xmlns="http://www.w3.org/2000/svg">
<path d="M8.49998 9.30624C10.9606 9.30624 12.9553 7.25452 12.9553 4.72359C12.9553 2.19265 10.9606 0.14093 8.49998 0.14093C6.03935 0.14093 4.04462 2.19265 4.04462 4.72359C4.04462 7.25452 6.03935 9.30624 8.49998 9.30624Z" fill="white"/>
<path d="M8.49977 11.3702C7.03124 11.3702 4.53058 11.459 3.03916 11.6341C2.63617 11.6814 2.27623 11.9169 2.06329 12.2718C0.679176 14.581 0.135066 15.3626 0.185676 17.7276C0.200166 18.4 0.690096 18.9606 1.33858 19.0474C3.39217 19.3206 6.46466 19.4595 8.49872 19.4595C10.5324 19.4595 13.6057 19.3204 15.6612 19.0474C16.3099 18.9606 16.8 18.4 16.8143 17.7276C16.8647 15.3629 16.3208 14.5812 14.9371 12.2718C14.7239 11.9167 14.3642 11.6814 13.9608 11.6341C12.4692 11.459 9.9683 11.3702 8.49977 11.3702Z" fill="white"/>
</svg>
